<?xml version="1.0" encoding="utf-8"?>
<!-- Generator: Adobe Illustrator 26.0.1, SVG Export Plug-In . SVG Version: 6.00 Build 0)  -->
<svg version="1.1" id="Original_Logo" xmlns="http://www.w3.org/2000/svg" xmlns:xlink="http://www.w3.org/1999/xlink" x="0px"
	 y="0px" viewBox="0 0 1080 178" enable-background="new 0 0 1080 178" xml:space="preserve">
<g>
	<path fill="#009B4D" d="M243.155,142.48c-2.935,0-6.011-0.06-9.229-0.178c-3.219-0.119-6.484-0.296-9.796-0.532
		c-3.313-0.237-6.579-0.568-9.796-0.994V38.696c3.266-0.71,6.755-1.325,10.471-1.846c3.715-0.521,7.513-0.923,11.394-1.207
		c3.88-0.284,7.69-0.426,11.429-0.426c19.071,0,33.471,4.342,43.196,13.026c9.726,8.685,14.588,22.231,14.588,40.641
		c0,12.542-2.296,22.752-6.886,30.631c-4.591,7.88-11.5,13.677-20.729,17.392C268.568,140.623,257.02,142.48,243.155,142.48z
		 M249.118,123.739c7.288,0,13.357-1.146,18.208-3.443c4.851-2.295,8.471-6.009,10.861-11.145
		c2.389-5.134,3.585-11.914,3.585-20.338c0-8.377-1.219-15.132-3.656-20.267c-2.438-5.135-6.069-8.874-10.896-11.216
		s-10.814-3.514-17.96-3.514c-1.799,0-3.762,0.096-5.892,0.284c-2.13,0.189-4.117,0.45-5.963,0.781v68.362
		c1.94,0.189,3.869,0.319,5.786,0.39C245.107,123.704,247.082,123.739,249.118,123.739z"/>
	<path fill="#009B4D" d="M331.109,52.467c-4.733,0-8.247-1.041-10.542-3.124c-2.296-2.082-3.443-4.969-3.443-8.661
		c0-3.786,1.147-6.708,3.443-8.767c2.295-2.059,5.809-3.088,10.542-3.088c4.779,0,8.306,1.029,10.577,3.088
		c2.271,2.059,3.407,4.981,3.407,8.767c0,3.691-1.136,6.579-3.407,8.661C339.415,51.427,335.889,52.467,331.109,52.467z
		 M319.822,141.415V63.754h22.645v77.661H319.822z"/>
	<path fill="#009B4D" d="M387.259,174.07c-4.117,0-8.424-0.249-12.919-0.746c-4.497-0.497-8.851-1.313-13.062-2.449V153.2
		c4.354,1.182,8.589,2.059,12.707,2.626c4.117,0.568,7.951,0.852,11.5,0.852c7.571,0,13.073-1.42,16.505-4.26
		c3.431-2.839,5.146-7.572,5.146-14.197v-5.111h-1.065c-2.225,2.745-5.029,4.898-8.412,6.46c-3.384,1.562-7.276,2.343-11.677,2.343
		c-5.301,0-10.247-1.337-14.837-4.011c-4.591-2.673-8.294-6.791-11.109-12.352c-2.816-5.561-4.224-12.695-4.224-21.403
		c0-13.393,3.644-23.675,10.933-30.845c7.287-7.169,18.338-10.754,33.151-10.754c3.312,0,6.731,0.166,10.258,0.497
		c3.525,0.332,6.968,0.816,10.329,1.456c3.36,0.639,6.46,1.432,9.299,2.378v67.226c0,14.056-3.502,24.23-10.506,30.525
		C412.27,170.922,401.599,174.07,387.259,174.07z M394.571,123.526c2.271,0,4.519-0.39,6.744-1.171
		c2.224-0.781,4.164-1.952,5.821-3.514V80.65c-1.231-0.284-2.639-0.521-4.224-0.71c-1.586-0.188-3.254-0.284-5.005-0.284
		c-6.247,0-11.027,1.739-14.339,5.218c-3.313,3.479-4.969,9.264-4.969,17.356c0,5.491,0.662,9.785,1.987,12.884
		c1.325,3.101,3.183,5.278,5.573,6.531C388.548,122.9,391.352,123.526,394.571,123.526z"/>
	<path fill="#009B4D" d="M457.962,52.467c-4.733,0-8.247-1.041-10.542-3.124c-2.296-2.082-3.443-4.969-3.443-8.661
		c0-3.786,1.147-6.708,3.443-8.767c2.295-2.059,5.809-3.088,10.542-3.088c4.779,0,8.306,1.029,10.577,3.088
		c2.271,2.059,3.407,4.981,3.407,8.767c0,3.691-1.136,6.579-3.407,8.661C466.268,51.427,462.741,52.467,457.962,52.467z
		 M446.675,141.415V63.754h22.645v77.661H446.675z"/>
	<path fill="#FFFFFF" d="M516.809,142.622c-2.887,0-6.046-0.083-9.477-0.249c-3.432-0.167-6.886-0.403-10.364-0.71
		s-6.732-0.674-9.761-1.101V38.696c3.266-0.71,6.767-1.337,10.506-1.881c3.738-0.543,7.583-0.969,11.536-1.278
		c3.951-0.307,7.844-0.461,11.677-0.461c10.411,0,18.918,1.077,25.52,3.23c6.603,2.154,11.465,5.395,14.589,9.726
		c3.123,4.33,4.685,9.761,4.685,16.292c0,3.881-0.745,7.443-2.236,10.684c-1.49,3.242-3.655,5.975-6.495,8.199
		c-2.84,2.225-6.295,3.739-10.364,4.543l0.071-0.923c6.673,0.947,11.984,3.514,15.937,7.702c3.951,4.188,5.928,9.998,5.928,17.428
		c0,4.875-0.923,9.217-2.769,13.026c-1.846,3.81-4.804,7.028-8.874,9.654s-9.405,4.614-16.007,5.963
		S526.274,142.622,516.809,142.622z M522.985,125.798c6.152,0,10.991-0.544,14.517-1.633c3.525-1.088,6.034-2.721,7.525-4.898
		c1.491-2.176,2.236-4.945,2.236-8.306c0-5.063-1.574-8.767-4.72-11.109c-3.148-2.343-8.318-3.514-15.511-3.514h-19.734v-17.25
		h17.534c4.686,0,8.436-0.508,11.252-1.526c2.815-1.017,4.851-2.52,6.105-4.508c1.253-1.987,1.881-4.495,1.881-7.524
		c0-4.78-1.515-8.246-4.543-10.4c-3.029-2.153-8.259-3.23-15.688-3.23c-2.698,0-5.182,0.106-7.454,0.319
		c-2.272,0.213-4.497,0.509-6.673,0.888v72.053c2.414,0.237,4.661,0.403,6.744,0.497
		C518.536,125.751,520.713,125.798,522.985,125.798z"/>
	<path fill="#FFFFFF" d="M602.064,142.835c-7.95,0-14.139-2.07-18.563-6.211c-4.426-4.141-6.637-9.548-6.637-16.221
		c0-7.335,2.543-13.062,7.631-17.179c5.087-4.118,13.311-6.554,24.668-7.312l16.328-1.349l2.413,12.494l-16.469,1.349
		c-4.355,0.332-7.489,1.325-9.406,2.981c-1.917,1.657-2.875,3.929-2.875,6.815c0,2.839,0.875,5.029,2.626,6.566
		c1.751,1.538,4.307,2.307,7.667,2.307c2.082,0,4.212-0.366,6.389-1.1c2.177-0.733,4.164-1.999,5.964-3.798V93.783
		c0-3.55-0.58-6.341-1.739-8.377c-1.16-2.034-3.029-3.489-5.608-4.366c-2.58-0.875-6.023-1.313-10.329-1.313
		c-2.981,0-6.365,0.248-10.151,0.745s-7.407,1.29-10.861,2.378V65.813c3.786-1.088,7.938-1.904,12.459-2.449
		c4.519-0.544,8.72-0.816,12.601-0.816c8.234,0,14.989,1.018,20.267,3.052c5.276,2.036,9.169,5.431,11.678,10.187
		c2.508,4.756,3.763,11.228,3.763,19.415v46.213h-18.6l-1.562-7.738h-1.064c-2.319,3.171-5.277,5.491-8.874,6.957
		S606.276,142.835,602.064,142.835z"/>
	<path fill="#FFFFFF" d="M660.131,141.415V63.754h18.67l1.491,7.88h1.064c2.887-2.934,6.271-5.182,10.151-6.744
		c3.88-1.562,8.093-2.342,12.636-2.342c5.111,0,9.666,1.006,13.665,3.017c3.999,2.012,7.135,5.253,9.406,9.726
		s3.407,10.376,3.407,17.711v48.414h-22.645V94.421c0-4.685-0.971-7.926-2.911-9.726c-1.94-1.798-4.614-2.697-8.021-2.697
		c-1.703,0-3.42,0.225-5.146,0.674c-1.729,0.45-3.384,1.148-4.969,2.094c-1.587,0.947-2.994,2.129-4.225,3.549v53.099H660.131z"/>
	<path fill="#FFFFFF" d="M775.201,142.764c-5.727,0-11.015-1.302-15.865-3.904c-4.852-2.602-8.731-6.744-11.643-12.423
		c-2.91-5.679-4.365-13.085-4.365-22.219c0-9.039,1.608-16.658,4.827-22.858c3.218-6.199,7.962-10.896,14.233-14.091
		c6.27-3.195,14.043-4.792,23.319-4.792c1.562,0,3.111,0.06,4.649,0.178c1.537,0.119,2.97,0.249,4.295,0.39V26.699h22.646v114.717
		h-19.025l-1.349-8.164h-1.064c-2.226,2.839-5.076,5.135-8.555,6.886S779.791,142.764,775.201,142.764z M781.874,124.307
		c2.318,0,4.626-0.426,6.922-1.278c2.295-0.852,4.247-2.176,5.856-3.976V80.578c-1.231-0.284-2.651-0.508-4.26-0.674
		c-1.609-0.165-3.194-0.249-4.756-0.249c-6.484,0-11.358,1.739-14.623,5.218c-3.266,3.479-4.898,9.335-4.898,17.569
		c0,5.633,0.662,10.034,1.987,13.204c1.324,3.171,3.159,5.407,5.502,6.708C775.947,123.657,778.703,124.307,781.874,124.307z"/>
	<path fill="#FFFFFF" d="M834.191,141.415V26.699h22.574v44.864h1.136c2.65-2.934,5.773-5.17,9.371-6.708
		c3.596-1.538,7.619-2.307,12.067-2.307c4.732,0,9.016,0.994,12.85,2.981c3.833,1.988,6.873,5.217,9.121,9.69
		c2.248,4.472,3.372,10.399,3.372,17.782v48.414h-22.645V94.492c0-4.731-0.983-7.986-2.946-9.761
		c-1.965-1.775-4.627-2.662-7.986-2.662c-1.703,0-3.432,0.225-5.182,0.674c-1.752,0.451-3.42,1.148-5.005,2.094
		c-1.586,0.947-2.971,2.13-4.153,3.549v53.028H834.191z"/>
	<path fill="#FFFFFF" d="M942.163,142.835c-7.95,0-14.139-2.07-18.563-6.211c-4.426-4.141-6.637-9.548-6.637-16.221
		c0-7.335,2.543-13.062,7.631-17.179c5.087-4.118,13.311-6.554,24.668-7.312l16.328-1.349l2.413,12.494l-16.469,1.349
		c-4.355,0.332-7.489,1.325-9.406,2.981c-1.917,1.657-2.875,3.929-2.875,6.815c0,2.839,0.875,5.029,2.626,6.566
		c1.751,1.538,4.307,2.307,7.667,2.307c2.082,0,4.212-0.366,6.389-1.1c2.177-0.733,4.164-1.999,5.964-3.798V93.783
		c0-3.55-0.58-6.341-1.739-8.377c-1.16-2.034-3.029-3.489-5.608-4.366c-2.58-0.875-6.023-1.313-10.329-1.313
		c-2.981,0-6.365,0.248-10.151,0.745s-7.407,1.29-10.861,2.378V65.813c3.786-1.088,7.938-1.904,12.459-2.449
		c4.519-0.544,8.72-0.816,12.601-0.816c8.234,0,14.989,1.018,20.267,3.052c5.276,2.036,9.169,5.431,11.678,10.187
		c2.508,4.756,3.763,11.228,3.763,19.415v46.213h-18.6l-1.562-7.738h-1.064c-2.319,3.171-5.277,5.491-8.874,6.957
		S946.375,142.835,942.163,142.835z"/>
	<path fill="#FFFFFF" d="M1000.229,141.415V63.754h18.67l1.491,7.88h1.064c2.887-2.934,6.271-5.182,10.151-6.744
		c3.88-1.562,8.093-2.342,12.636-2.342c5.111,0,9.666,1.006,13.665,3.017c3.999,2.012,7.135,5.253,9.406,9.726
		s3.407,10.376,3.407,17.711v48.414h-22.645V94.421c0-4.685-0.971-7.926-2.911-9.726c-1.94-1.798-4.614-2.697-8.021-2.697
		c-1.703,0-3.42,0.225-5.146,0.674c-1.729,0.45-3.384,1.148-4.969,2.094c-1.587,0.947-2.994,2.129-4.225,3.549v53.099H1000.229z"/>
</g>
<g>
	<path fill="#009B4D" d="M17.74,109.662c-0.907-2.685-3.425-12.268,4.979-16.806c4.267-2.304,9.448-2.318,13.783-0.146
		c6.918,3.466,17.017,13.27,23.441,40.744c0,0,0,0,0,0c0.001,0.004,8.474,28.498,24.684,40.136c0,0,18.567,12.79,38.846-7.668
		c0.105-0.106,0.068-0.29-0.072-0.343l-23.726-9c-0.054-0.02-0.096-0.062-0.118-0.115c-0.76-1.885-14.37-35.522-25.903-55.885
		c-4.707-8.31-11.494-15.304-19.831-19.963C43.699,74.957,28.53,73.2,16.663,84.945c-6.969,6.897-6.908,18.193,0.445,24.678
		c0.1,0.088,0.201,0.176,0.304,0.264C17.57,110.022,17.806,109.859,17.74,109.662z"/>
	<g id="XMLID_00000057113395152243095600000000867662781382325679_">
		<g>
			<path fill="#FFFFFF" d="M164.751,54.718c0,0,41.042,19.433,0.007,70.808c0.2-0.586,12.441-35.476-9.417-44.115
				c-7.378-2.921-15.782-1.488-21.988,3.458l-49.86,39.644c-11.27,8.969-25.35,13.805-39.747,13.274
				c-9.506-0.351-19.639-3.059-27.52-11.497C5.383,114.683,6.203,92.557,17.397,84.201c0.248-0.186-15.479,35.091,21.506,31.198
				c7.901-0.834,20.37-2.08,53.531-32.273c2.294-2.087,4.726-4.023,6.999-6.131C108.292,68.805,140.51,41.581,164.751,54.718z"/>
		</g>
		<g>
		</g>
	</g>
	<path fill="#0DB55C" d="M146.55,79.928c0,0,23.704,12.606,4.999,29.649c-1.812,1.651-39.073,35.332-39.073,35.332
		c-15.795,14.548-30.736,17.473-44.061,8.729c0,0,11.171,27.766,33.815,23.874c3.81-0.655,7.615-1.179,13.986-4.754
		c3.937-2.209,8.672-5.351,11.878-8.529l24.406-24.19c5.706-5.22,10.896-10.984,15.427-17.252c6.508-9.002,7.521-13.21,6.897-20.692
		C173.955,91.635,165.042,80.276,146.55,79.928z"/>
	<circle fill="#009B4D" cx="49.711" cy="46.396" r="21.199"/>
	<circle fill="#FFFFFF" cx="122.453" cy="24.197" r="24.109"/>
</g>
</svg>
