<?xml version="1.0" encoding="utf-8"?>
<!-- Generator: Adobe Illustrator 26.0.1, SVG Export Plug-In . SVG Version: 6.00 Build 0)  -->
<svg version="1.1" id="Original_Logo" xmlns="http://www.w3.org/2000/svg" xmlns:xlink="http://www.w3.org/1999/xlink" x="0px"
	 y="0px" viewBox="0 0 1080 193" enable-background="new 0 0 1080 193" xml:space="preserve">
<g>
	<path fill="#009B4D" d="M268.363,143.927h-35.411V38.776h35.411c9.07,0,16.546,0.954,22.422,2.861
		c5.876,1.909,10.437,5.052,13.685,9.433c3.247,4.383,5.49,9.536,6.727,15.463c1.237,5.929,1.856,13.635,1.856,23.118
		c0,9.486-0.568,17.346-1.701,23.582c-1.136,6.239-3.274,11.805-6.417,16.7c-3.146,4.898-7.708,8.454-13.685,10.67
		C285.269,142.82,277.641,143.927,268.363,143.927z M290.785,102.176c0.205-3.298,0.309-7.86,0.309-13.685
		c0-5.823-0.208-10.489-0.619-13.994c-0.413-3.503-1.392-6.7-2.938-9.587c-1.547-2.885-3.842-4.871-6.881-5.954
		c-3.042-1.082-7.14-1.623-12.293-1.623h-14.072v68.039h14.072c7.732,0,13.349-1.957,16.855-5.876
		C288.207,116.301,290.063,110.526,290.785,102.176z"/>
	<path fill="#009B4D" d="M329.751,56.714v-21.03h20.721v21.03H329.751z M329.751,143.927V66.61h20.721v77.317H329.751z"/>
	<path fill="#009B4D" d="M439.694,153.592c0,8.814-3.402,15.333-10.206,19.561c-6.804,4.226-16.005,6.34-27.602,6.34
		c-11.598,0-20.516-1.546-26.752-4.639c-6.239-3.093-9.355-8.713-9.355-16.855c0-6.495,3.711-12.63,11.134-18.402
		c-3.815-2.575-5.721-6.495-5.721-11.752c0-2.061,1.546-5.463,4.639-10.206l1.392-2.165c-7.012-5.05-10.515-12.499-10.515-22.344
		c0-9.844,2.962-16.983,8.891-21.417c5.927-4.432,13.787-6.65,23.582-6.65c4.431,0,8.814,0.517,13.144,1.547l2.474,0.464
		l24.896-0.773v16.546l-11.598-0.928c2.266,3.506,3.402,7.012,3.402,10.515c0,10.31-2.629,17.423-7.886,21.34
		c-5.258,3.919-13.507,5.876-24.742,5.876c-2.373,0-4.484-0.205-6.34-0.618c-1.032,2.682-1.547,4.871-1.547,6.572
		c0,1.701,0.875,2.861,2.629,3.48c1.751,0.618,5.876,0.981,12.371,1.082c12.989,0.104,21.854,1.831,26.597,5.18
		C437.322,138.696,439.694,144.778,439.694,153.592z M386.191,155.834c0,4.431,5.436,6.649,16.314,6.649
		c10.875,0,16.314-2.578,16.314-7.732c0-2.784-0.928-4.562-2.783-5.335c-1.856-0.773-5.775-1.213-11.752-1.315l-13.917-1.082
		C387.583,149.803,386.191,152.741,386.191,155.834z M387.428,92.511c0,7.577,3.943,11.366,11.83,11.366s11.83-3.788,11.83-11.366
		c0-7.577-3.943-11.366-11.83-11.366S387.428,84.935,387.428,92.511z"/>
	<path fill="#009B4D" d="M452.219,56.714v-21.03h20.721v21.03H452.219z M452.219,143.927V66.61h20.721v77.317H452.219z"/>
	<path fill="#0A1F44" d="M493.97,38.776h41.287c10.926,0,19.122,2.192,24.587,6.572c5.462,4.383,8.195,11.469,8.195,21.262
		c0,5.876-0.877,10.542-2.628,13.994c-1.754,3.455-4.743,6.521-8.969,9.201c4.639,1.959,8.066,4.793,10.283,8.505
		c2.216,3.711,3.325,8.867,3.325,15.464c0,10.206-2.991,17.783-8.968,22.731c-5.981,4.948-14.381,7.422-25.206,7.422H493.97V38.776z
		 M534.175,57.023h-18.866v25.051h19.02c8.041,0,12.061-4.175,12.061-12.525C546.39,61.198,542.316,57.023,534.175,57.023z
		 M534.793,100.011h-19.484v25.669h19.484c4.639,0,8.065-0.928,10.283-2.783c2.216-1.856,3.325-5.257,3.325-10.206
		C548.401,104.24,543.863,100.011,534.793,100.011z"/>
	<path fill="#0A1F44" d="M645.509,90.733v32.164c0.206,2.474,0.619,4.202,1.238,5.18c0.618,0.981,1.906,1.677,3.865,2.088
		l-0.618,15.618c-5.257,0-9.459-0.363-12.603-1.082c-3.146-0.723-6.315-2.165-9.51-4.33c-7.422,3.607-15,5.412-22.731,5.412
		c-15.98,0-23.968-8.452-23.968-25.36c0-8.246,2.216-14.096,6.649-17.551c4.432-3.452,11.236-5.489,20.412-6.108l16.546-1.237
		v-4.794c0-3.194-0.723-5.385-2.165-6.572c-1.445-1.184-3.765-1.778-6.959-1.778l-29.071,1.237l-0.618-14.381
		c11.03-2.989,21.519-4.485,31.468-4.485c9.948,0,17.112,2.064,21.494,6.186C643.318,75.064,645.509,81.663,645.509,90.733z
		 M610.717,111.145c-5.774,0.517-8.66,3.61-8.66,9.278c0,5.671,2.525,8.505,7.578,8.505c3.916,0,8.195-0.618,12.835-1.856
		l2.32-0.618v-16.546L610.717,111.145z"/>
	<path fill="#0A1F44" d="M686.021,143.927h-20.72V66.61h20.566v4.33c7.009-4.122,13.453-6.186,19.329-6.186
		c10.306,0,17.42,3.042,21.339,9.124c3.916,6.084,5.875,15.463,5.875,28.143v41.906H711.69V102.64
		c0-6.596-0.772-11.467-2.319-14.613c-1.547-3.144-4.64-4.716-9.278-4.716c-4.229,0-8.299,0.723-12.216,2.165l-1.856,0.618V143.927z
		"/>
	<path fill="#0A1F44" d="M816.531,35.684v108.243h-20.566v-3.247c-7.217,3.402-13.453,5.103-18.711,5.103
		c-11.237,0-19.072-3.247-23.504-9.742c-4.433-6.495-6.649-16.778-6.649-30.849c0-14.072,2.653-24.328,7.963-30.772
		c5.309-6.442,13.323-9.665,24.046-9.665c3.298,0,7.886,0.517,13.763,1.547l2.937,0.618V35.684H816.531z M793.645,125.371
		l2.165-0.464V84.238c-5.67-1.029-10.722-1.546-15.153-1.546c-8.351,0-12.526,7.422-12.526,22.267
		c0,8.041,0.928,13.763,2.783,17.164c1.856,3.402,4.922,5.103,9.201,5.103C784.391,127.227,788.902,126.608,793.645,125.371z"/>
	<path fill="#0A1F44" d="M856.426,143.927h-20.72V35.684h20.72v34.638c7.114-3.711,13.505-5.567,19.175-5.567
		c10.306,0,17.42,3.042,21.339,9.124c3.916,6.084,5.875,15.463,5.875,28.143v41.906h-20.721v-41.442
		c0-6.495-0.772-11.312-2.319-14.458c-1.547-3.144-4.64-4.716-9.278-4.716c-4.021,0-8.041,0.618-12.061,1.856l-2.011,0.618V143.927z
		"/>
	<path fill="#0A1F44" d="M980.441,90.733v32.164c0.206,2.474,0.619,4.202,1.238,5.18c0.618,0.981,1.906,1.677,3.865,2.088
		l-0.618,15.618c-5.257,0-9.459-0.363-12.603-1.082c-3.146-0.723-6.316-2.165-9.51-4.33c-7.422,3.607-15,5.412-22.731,5.412
		c-15.98,0-23.968-8.452-23.968-25.36c0-8.246,2.216-14.096,6.649-17.551c4.432-3.452,11.236-5.489,20.412-6.108l16.546-1.237
		v-4.794c0-3.194-0.723-5.385-2.165-6.572c-1.445-1.184-3.765-1.778-6.959-1.778l-29.071,1.237l-0.618-14.381
		c11.03-2.989,21.519-4.485,31.468-4.485c9.948,0,17.112,2.064,21.494,6.186C978.25,75.064,980.441,81.663,980.441,90.733z
		 M945.648,111.145c-5.774,0.517-8.66,3.61-8.66,9.278c0,5.671,2.525,8.505,7.578,8.505c3.916,0,8.195-0.618,12.835-1.856
		l2.32-0.618v-16.546L945.648,111.145z"/>
	<path fill="#0A1F44" d="M1020.953,143.927h-20.72V66.61h20.566v4.33c7.009-4.122,13.453-6.186,19.329-6.186
		c10.307,0,17.42,3.042,21.339,9.124c3.916,6.084,5.875,15.463,5.875,28.143v41.906h-20.721V102.64
		c0-6.596-0.772-11.467-2.319-14.613c-1.547-3.144-4.64-4.716-9.278-4.716c-4.229,0-8.299,0.723-12.216,2.165l-1.856,0.618V143.927z
		"/>
</g>
<g display="none">
	<path display="inline" fill="#009B4D" d="M19.997,118.686c-0.975-2.885-3.681-13.183,5.351-18.06
		c4.585-2.476,10.153-2.491,14.812-0.157c7.434,3.724,18.286,14.259,25.19,43.783c0,0,0,0,0,0
		c0.001,0.005,9.106,30.624,26.525,43.13c0,0,19.952,13.745,41.744-8.24c0.113-0.114,0.073-0.311-0.077-0.368l-25.496-9.671
		c-0.058-0.022-0.103-0.066-0.126-0.123c-0.817-2.026-15.442-38.172-27.836-60.054c-5.058-8.93-12.352-16.446-21.31-21.453
		c-10.88-6.081-27.18-7.969-39.933,4.652c-7.489,7.411-7.424,19.55,0.478,26.519c0.107,0.095,0.216,0.189,0.327,0.284
		C19.815,119.073,20.068,118.898,19.997,118.686z"/>
	<g id="XMLID_00000030448109922727753310000012511543452878307478_" display="inline">
		<g>
			<path fill="#0A1F44" d="M177.97,59.647c0,0,44.111,20.875,0.007,76.083c0.215-0.629,13.369-38.115-10.112-47.405
				c-7.935-3.131-16.959-1.592-23.636,3.716l-53.572,42.609c-12.118,9.631-27.249,14.835-42.712,14.257
				c-10.215-0.378-21.104-3.287-29.573-12.347c-11.659-12.473-10.778-36.25,1.251-45.229c0.266-0.2-16.626,37.701,23.118,33.518
				c8.483-0.896,21.882-2.236,57.525-34.673c2.465-2.243,5.071-4.33,7.521-6.588C117.307,74.778,151.921,45.53,177.97,59.647z"/>
		</g>
		<g>
		</g>
	</g>
	<path display="inline" fill="#0DB55C" d="M158.416,86.735c0,0,25.472,13.547,5.372,31.861
		c-1.948,1.775-41.987,37.967-41.987,37.967c-16.974,15.634-33.029,18.777-47.348,9.38c0,0,12.005,29.837,36.338,25.655
		c4.094-0.704,8.183-1.267,15.03-5.108c4.231-2.373,9.319-5.75,12.764-9.165l26.227-25.995c6.132-5.61,11.709-11.804,16.578-18.539
		c6.993-9.673,8.082-14.196,7.412-22.236C187.865,99.315,178.287,87.108,158.416,86.735z"/>
	<circle display="inline" fill="#009B4D" cx="54.353" cy="50.701" r="22.78"/>
	<circle display="inline" fill="#0A1F44" cx="132.521" cy="27.92" r="25.907"/>
</g>
<g>
	<path fill="#009B4D" d="M18.273,118.214c-0.981-2.904-3.704-13.268,5.385-18.177c4.615-2.492,10.218-2.507,14.907-0.158
		c7.482,3.748,18.404,14.351,25.352,44.066c0,0,0,0,0,0c0.001,0.005,9.165,30.822,26.696,43.408c0,0,20.08,13.833,42.013-8.293
		c0.114-0.115,0.073-0.313-0.078-0.371l-25.66-9.733c-0.058-0.022-0.104-0.067-0.127-0.124
		c-0.822-2.039-15.541-38.419-28.015-60.442c-5.09-8.987-12.432-16.552-21.448-21.591c-10.95-6.12-27.355-8.021-40.191,4.682
		c-7.537,7.459-7.471,19.676,0.482,26.69c0.108,0.095,0.218,0.19,0.329,0.285C18.089,118.603,18.345,118.427,18.273,118.214z"/>
	<g id="XMLID_00000057113395152243095600000000867662781382325679_">
		<g>
			<path fill="#0A1F44" d="M177.266,58.793c0,0,44.388,21.01,0.007,76.581c0.216-0.633,13.455-38.369-10.177-47.711
				c-7.987-3.159-17.068-1.609-23.789,3.733l-53.925,42.883c-12.189,9.693-27.417,14.93-42.98,14.349
				c-10.281-0.38-21.248-3.308-29.764-12.427C4.905,123.647,5.792,99.717,17.898,90.68c0.268-0.201-16.741,37.944,23.26,33.735
				c8.545-0.894,22.03-2.243,57.903-34.897c2.481-2.257,5.103-4.351,7.569-6.631C116.204,74.021,151.049,44.585,177.266,58.793z"/>
		</g>
		<g>
		</g>
	</g>
	<path fill="#0DB55C" d="M157.585,86.056c0,0,25.636,13.634,5.407,32.066c-1.96,1.786-42.258,38.212-42.258,38.212
		c-17.083,15.734-33.242,18.898-47.653,9.441c0,0,12.082,30.03,36.572,25.821c4.121-0.708,8.236-1.275,15.127-5.141
		c4.258-2.389,9.379-5.787,12.847-9.224l26.396-26.162c6.171-5.646,11.784-11.88,16.685-18.658
		c7.038-9.736,8.134-14.287,7.46-22.379C187.223,98.717,177.584,86.432,157.585,86.056z"/>
	<circle fill="#009B4D" cx="52.85" cy="49.79" r="22.927"/>
	<circle fill="#0A1F44" cx="131.522" cy="26.863" r="26.074"/>
</g>
</svg>
